<?xml version="1.0" encoding="UTF-8" standalone="no" ?>
<!DOCTYPE svg PUBLIC "-//W3C//DTD SVG 1.1//EN" "http://www.w3.org/Graphics/SVG/1.1/DTD/svg11.dtd">
<svg xmlns="http://www.w3.org/2000/svg" xmlns:xlink="http://www.w3.org/1999/xlink" version="1.1" width="1080" height="1080" viewBox="0 0 1080 1080" xml:space="preserve">
<desc>Created with Fabric.js 5.2.4</desc>
<defs>
</defs>
<g transform="matrix(1 0 0 1 540 540)" id="9304245f-efc0-42d3-8071-2bebfa7b67f6"  >
<rect style="stroke: none; stroke-width: 1; stroke-dasharray: none; stroke-linecap: butt; stroke-dashoffset: 0; stroke-linejoin: miter; stroke-miterlimit: 4; fill: rgb(255,255,255); fill-rule: nonzero; opacity: 1; visibility: hidden;" vector-effect="non-scaling-stroke"  x="-540" y="-540" rx="0" ry="0" width="1080" height="1080" />
</g>
<g transform="matrix(1 0 0 1 540 540)" id="aa4bbc10-ffec-4ac4-93b2-1a141d8ab36f"  >
</g>
<g transform="matrix(1 0 0 1 540 540)"  >
<circle style="stroke: rgb(94,94,94); stroke-width: 0.5; stroke-dasharray: none; stroke-linecap: butt; stroke-dashoffset: 0; stroke-linejoin: miter; stroke-miterlimit: 4; fill: none; fill-rule: nonzero; opacity: 1;" vector-effect="non-scaling-stroke"  cx="0" cy="0" r="17.25" />
</g>
<g transform="matrix(1 0 0 1 540 540)"  >
<path style="stroke: none; stroke-width: 1; stroke-dasharray: none; stroke-linecap: butt; stroke-dashoffset: 0; stroke-linejoin: miter; stroke-miterlimit: 4; fill: rgb(34,34,34); fill-rule: evenodd; opacity: 1;" vector-effect="non-scaling-stroke"  transform=" translate(-17.5, -17.5)" d="M 11 16.7778 C 11 14.0541 11 12.6923 11.8461 11.8461 C 12.6923 11 14.0541 11 16.7778 11 L 18.2222 11 C 20.9459 11 22.3078 11 23.1538 11.8461 C 24 12.6923 24 14.0541 24 16.7778 L 24 18.2222 C 24 20.9459 24 22.3078 23.1538 23.1538 C 22.3078 24 20.9459 24 18.2222 24 L 16.7778 24 C 14.0541 24 12.6923 24 11.8461 23.1538 C 11 22.3078 11 20.9459 11 18.2222 L 11 16.7778 Z M 21.8333 14.25 C 21.8333 14.8483 21.3483 15.3333 20.75 15.3333 C 20.1517 15.3333 19.6667 14.8483 19.6667 14.25 C 19.6667 13.6517 20.1517 13.1667 20.75 13.1667 C 21.3483 13.1667 21.8333 13.6517 21.8333 14.25 Z M 18.9444 18.2222 C 18.9444 19.02 18.2978 19.6667 17.5 19.6667 C 16.7022 19.6667 16.0556 19.02 16.0556 18.2222 C 16.0556 17.4245 16.7022 16.7778 17.5 16.7778 C 18.2978 16.7778 18.9444 17.4245 18.9444 18.2222 Z M 20.3889 18.2222 C 20.3889 19.8177 19.0955 21.1111 17.5 21.1111 C 15.9045 21.1111 14.6111 19.8177 14.6111 18.2222 C 14.6111 16.6268 15.9045 15.3333 17.5 15.3333 C 19.0955 15.3333 20.3889 16.6268 20.3889 18.2222 Z" stroke-linecap="round" />
</g>
</svg>